<svg xmlns="http://www.w3.org/2000/svg" xmlns:xlink="http://www.w3.org/1999/xlink" width="16" height="20" viewBox="0 0 16 20"><defs><clipPath id="a"><path d="M15,20H3a2.992,2.992,0,0,1-2.155-.865A3.007,3.007,0,0,1,0,17V3A3.007,3.007,0,0,1,.845.865,2.992,2.992,0,0,1,3,0H15a.91.91,0,0,1,1,1V16H4a1,1,0,1,0,0,2H16v1A.91.91,0,0,1,15,20Z" transform="translate(0.5)" fill="#fff"/></clipPath></defs><path d="M15,20H3a2.992,2.992,0,0,1-2.155-.865A3.007,3.007,0,0,1,0,17V3A3.007,3.007,0,0,1,.845.865,2.992,2.992,0,0,1,3,0H15a.91.91,0,0,1,1,1V16H4a1,1,0,1,0,0,2H16v1A.91.91,0,0,1,15,20Z" fill="#fff"/></svg>