<svg xmlns="http://www.w3.org/2000/svg" width="20" height="21" viewBox="0 0 20 21"><path d="M2,21a2,2,0,0,1-2-2V10A2,2,0,0,1,2,8H18a2,2,0,0,1,2,2v9a2,2,0,0,1-2,2Zm5-3.527A1.7,1.7,0,0,0,8.833,19a1.75,1.75,0,0,0,1.82-1.344.813.813,0,0,0,.014-.153V13.055c1.658-.316,2.657-.516,3.056-.611a.734.734,0,0,0,.611-.653V10.717A.7.7,0,0,0,13.647,10a.676.676,0,0,0-.206.033L9.927,11.108a.71.71,0,0,0-.482.684v4.24a2.148,2.148,0,0,0-.611-.087A1.7,1.7,0,0,0,7,17.473ZM3.5,6A.5.5,0,0,1,3,5.5v-1A.5.5,0,0,1,3.5,4h13a.5.5,0,0,1,.5.5v1a.5.5,0,0,1-.5.5Zm2-4A.5.5,0,0,1,5,1.5V.5A.5.5,0,0,1,5.5,0h9a.5.5,0,0,1,.5.5v1a.5.5,0,0,1-.5.5Z" fill="#fff"/></svg>